<?xml version="1.0" encoding="UTF-8" standalone="no"?>
<svg
   xmlns:dc="http://purl.org/dc/elements/1.1/"
   xmlns:cc="http://creativecommons.org/ns#"
   xmlns:rdf="http://www.w3.org/1999/02/22-rdf-syntax-ns#"
   xmlns:svg="http://www.w3.org/2000/svg"
   xmlns="http://www.w3.org/2000/svg"
   xmlns:sodipodi="http://sodipodi.sourceforge.net/DTD/sodipodi-0.dtd"
   xmlns:inkscape="http://www.inkscape.org/namespaces/inkscape"
   sodipodi:docname="logo-Final.svg"
   inkscape:version="1.0rc1 (09960d6f05, 2020-04-09)"
   id="svg8"
   version="1.1"
   viewBox="0 0 65.723909 67.412132"
   height="67.412132mm"
   width="65.723907mm">
  <defs
     id="defs2" />
  <sodipodi:namedview
     showguides="true"
     fit-margin-bottom="1"
     fit-margin-right="1"
     fit-margin-left="1"
     fit-margin-top="1"
     inkscape:window-maximized="1"
     inkscape:window-y="0"
     inkscape:window-x="0"
     inkscape:window-height="1136"
     inkscape:window-width="1920"
     showgrid="false"
     inkscape:document-rotation="0"
     inkscape:current-layer="layer1"
     inkscape:document-units="mm"
     inkscape:cy="143.63749"
     inkscape:cx="122.48834"
     inkscape:zoom="3.1256489"
     inkscape:pageshadow="2"
     inkscape:pageopacity="0.0"
     borderopacity="1.0"
     bordercolor="#666666"
     pagecolor="#ffffff"
     id="base" />
  <metadata
     id="metadata5">
    <rdf:RDF>
      <cc:Work
         rdf:about="">
        <dc:format>image/svg+xml</dc:format>
        <dc:type
           rdf:resource="http://purl.org/dc/dcmitype/StillImage" />
        <dc:title></dc:title>
      </cc:Work>
    </rdf:RDF>
  </metadata>
  <g
     transform="translate(-74.53154,-97.531815)"
     id="layer1"
     inkscape:groupmode="layer"
     inkscape:label="Layer 1">
    <g
       transform="translate(-0.47227111)"
       id="g1835">
      <g
         id="g112"
         transform="matrix(0.19726002,0,0,0.1943363,122.92798,144.51032)">
        <polygon
           id="polygon95"
           points="0,65 30,65 30,53 38,53 38,100 44,100 44,88 52,88 52,100 82,100 82,70 52,70 52,82 44,82 44,18 52,18 52,30 82,30 82,0 52,0 52,12 44,12 44,0 38,0 38,47 30,47 30,35 0,35 " />
      </g>
      <g
         id="g136"
         transform="matrix(0.22390237,0,0,0.22058376,72.865709,143.20015)">
        <path
           id="path116"
           d="m 52.8,36.89 c 2.63,0 5.44,-3 6.24,-3.89 0.8,-0.89 2.36,-2.85 2.19,-4.14 -0.08,-0.58 -0.28,-2.12 -8.33,-2.91 h -0.19 c -8.05,0.78 -8.26,2.33 -8.33,2.91 -0.18,1.29 1.47,3.33 2.19,4.14 0.72,0.81 3.6,3.89 6.23,3.89 z m 0,-8.94 a 23.66,23.66 0 0 1 6.39,1.32 c -0.47,1.43 -4.16,5.62 -6.39,5.62 -2.23,0 -6,-4.29 -6.41,-5.61 A 23.09,23.09 0 0 1 52.8,28 Z"
           inkscape:connector-curvature="0" />
        <path
           id="path118"
           d="m 81.12,69.06 a 5.36,5.36 0 0 0 -2.36,0.56 c 0.06,-0.93 0.11,-1.81 0.14,-2.58 0,0 0,-0.09 0,-0.13 v -0.16 c 0,-1.88 0,-3.16 0,-3.41 V 62.11 C 78.9,52.38 67.57,36.58 66,34.44 L 64.56,21.71 c 0,-4 -1.16,-7.09 -3.41,-9.32 A 12.71,12.71 0 0 0 52.81,9 12.69,12.69 0 0 0 44.46,12.39 c -2.26,2.23 -3.4,5.36 -3.42,9.32 L 39.59,34.44 C 38,36.58 26.7,52.38 26.7,62.11 v 1.23 c 0,0.23 -0.05,1.39 0,3.1 -3.51,-1.36 -7.48,-2.59 -9.3,0.11 -2,3 1.45,6.63 4.23,9.55 A 13.81,13.81 0 0 1 24,79 c 0.07,0.46 -0.89,0.85 -2.15,1.31 a 6.84,6.84 0 0 0 -2.85,1.54 2.1,2.1 0 0 0 -0.49,2 c 0.41,1.41 2.2,3.24 12.44,6.21 a 27.75,27.75 0 0 0 3.35,0.76 11.54,11.54 0 0 0 1.94,0.16 11.74,11.74 0 0 0 2,-0.19 11,11 0 0 0 2,0.19 h 25.1 c 0.3,0 0.59,0 0.87,0 0.28,0 0.56,0 0.84,0 a 11.68,11.68 0 0 0 9.43,-4.81 28,28 0 0 0 1.86,-2.89 v 0 C 83.57,74 83.57,71.43 82.88,70.14 a 2.1,2.1 0 0 0 -1.76,-1.08 z m -52.42,-7 c 0,-9.57 12.53,-26.52 12.66,-26.69 a 1,1 0 0 0 0.19,-0.48 L 43,21.88 v -0.11 c 0,-3.42 1,-6.1 2.81,-7.95 a 10.85,10.85 0 0 1 7,-2.82 v 0 a 10.86,10.86 0 0 1 6.95,2.82 c 1.86,1.85 2.8,4.53 2.8,8 a 0.45,0.45 0 0 0 0,0.11 l 1.48,13.06 a 1.06,1.06 0 0 0 0.19,0.48 c 0.13,0.17 12.67,17.12 12.67,26.69 v 4.24 c 0,1.15 -0.11,2.58 -0.25,4.15 -0.54,0.18 -0.93,0.23 -1.1,0 a 14.05,14.05 0 0 1 -0.31,-3.74 c -0.06,-3.7 -0.13,-8.23 -2.87,-9.51 -1.26,-5.06 -2.9,-8.82 -4.94,-11.35 a 1,1 0 1 0 -1.55,1.25 c 1.76,2.2 3.21,5.45 4.36,9.81 a 5.24,5.24 0 0 0 -3.15,2.36 C 65.34,50.5 59.61,44 52.8,44 45,44 38.64,52.49 38,63.25 c -1.7,-1.54 -2.79,-2 -3.58,-2.12 1.26,-6.52 3,-11.13 5.3,-14 a 1,1 0 0 0 -0.15,-1.4 1,1 0 0 0 -1.41,0.15 c -2.69,3.34 -4.68,8.81 -6,16.59 a 5.23,5.23 0 0 0 -0.33,2 c -0.17,1.12 -0.33,2.27 -0.48,3.47 a 10.37,10.37 0 0 1 -2.6,-0.78 q 0,-0.49 0,-0.93 z M 55,78.52 a 30.33,30.33 0 0 0 0.58,3.39 13.75,13.75 0 0 0 0.42,1.46 8.89,8.89 0 0 1 -3.2,0.63 9.42,9.42 0 0 1 -5.23,-1.66 11.69,11.69 0 0 0 -1.31,-9.19 26.5,26.5 0 0 0 -2,-2.82 c -1.72,-2.19 -3.15,-3.87 -4.35,-5.15 0,-0.06 0,-0.12 0,-0.18 0,-10.48 5.77,-19 12.86,-19 6.42,0 11.74,7 12.7,16.08 -0.41,0.82 -0.79,1.66 -1.14,2.46 a 13.93,13.93 0 0 1 -1.76,3.31 c -0.41,0.24 -1.13,-0.5 -2,-1.48 a 6.88,6.88 0 0 0 -2.51,-2 2.09,2.09 0 0 0 -2.06,0.31 c -1.14,0.89 -2.15,3.25 -1,13.84 z M 38.26,88.77 a 9.36,9.36 0 0 1 -2.19,0.22 11.49,11.49 0 0 1 -1.43,-0.12 l -0.8,-0.16 C 33.08,88.56 32.31,88.39 31.53,88.16 20.66,85 20.45,83.36 20.45,83.3 a 0.43,0.43 0 0 1 0.08,-0.13 6.11,6.11 0 0 1 2,-1 c 1.58,-0.58 3.73,-1.37 3.44,-3.47 -0.14,-1 -1.15,-2.13 -2.92,-4 -2.17,-2.28 -5.14,-5.4 -4,-7.06 A 2,2 0 0 1 20.81,67 c 1.65,0 4,0.9 6,1.67 l 0.32,0.13 0.72,0.28 1,0.39 a 8.69,8.69 0 0 0 2.26,0.59 2.26,2.26 0 0 0 0.79,-0.06 2.16,2.16 0 0 0 1.33,-0.91 6.19,6.19 0 0 0 0.59,-3.58 c 0,-0.26 0,-0.52 0,-0.79 A 3.68,3.68 0 0 1 34,63.23 0.31,0.31 0 0 1 34.08,63.12 v 0 c 0.06,0 0.9,-0.21 3.92,2.9 0.32,0.33 0.67,0.71 1,1.12 0.33,0.41 0.73,0.82 1.14,1.29 0.77,0.9 1.61,1.93 2.57,3.14 a 26.86,26.86 0 0 1 1.82,2.62 9.76,9.76 0 0 1 1.3,6.81 8.61,8.61 0 0 1 -0.26,1 8.78,8.78 0 0 1 -0.37,1 8.9,8.9 0 0 1 -0.89,1.7 9.67,9.67 0 0 1 -6.05,4.07 z M 42.8,89 A 11.84,11.84 0 0 0 46,85.82 13.08,13.08 0 0 0 46.9,84.24 11.16,11.16 0 0 0 52.8,86 10.92,10.92 0 0 0 56.88,85.18 11.59,11.59 0 0 0 60.46,89 Z M 76.61,82.32 A 25.66,25.66 0 0 1 74.88,85 c -0.07,0.1 -0.16,0.18 -0.24,0.28 a 9.77,9.77 0 0 1 -3.88,3 9.56,9.56 0 0 1 -4.5,0.71 9.84,9.84 0 0 1 -1.2,-0.15 9.63,9.63 0 0 1 -6.37,-4.52 9.17,9.17 0 0 1 -0.46,-0.88 9.53,9.53 0 0 1 -0.38,-0.93 8.64,8.64 0 0 1 -0.32,-1 A 26.19,26.19 0 0 1 57,78.3 C 55.77,67.04 57.21,66.23 57.27,66.2 v 0 h 0.14 a 6.15,6.15 0 0 1 1.68,1.49 c 1.14,1.24 2.69,2.93 4.52,1.86 0.72,-0.42 1.27,-1.38 2,-3 0.18,-0.39 0.37,-0.8 0.58,-1.27 0.21,-0.47 0.29,-0.67 0.45,-1 0.28,-0.63 0.59,-1.27 0.9,-1.88 0.95,-1.82 2,-3.38 3.19,-3.53 a 1.7,1.7 0 0 1 0.45,0 c 2,0.41 2,4.71 2.07,7.86 a 13.27,13.27 0 0 0 0.47,4.49 2.33,2.33 0 0 0 0.24,0.41 2.37,2.37 0 0 0 2.47,0.91 6.8,6.8 0 0 0 1,-0.28 c 0.37,-0.13 0.73,-0.28 1.07,-0.43 l 0.29,-0.14 a 6.29,6.29 0 0 1 2.13,-0.7 0.61,0.61 0 0 1 0.15,0 c 0,0 1.09,1.47 -4.46,11.33 z"
           inkscape:connector-curvature="0" />
      </g>
      <g
         id="g167"
         transform="matrix(0.37113408,0,0,0.36563325,95.662109,142.52687)"
         style="fill:#000000;fill-opacity:1;stroke:none;stroke-width:0.999801;stroke-miterlimit:4;stroke-dasharray:none;stroke-opacity:1">
        <g
           id="g148"
           style="fill:#000000;fill-opacity:1;stroke:none;stroke-width:0.999801;stroke-miterlimit:4;stroke-dasharray:none;stroke-opacity:1">
          <g
             id="g146"
             style="fill:#000000;fill-opacity:1;stroke:none;stroke-width:0.999801;stroke-miterlimit:4;stroke-dasharray:none;stroke-opacity:1">
            <path
               id="path140"
               d="M 56,9.5 H 8 C 7.724,9.5 7.5,9.724 7.5,10 v 44 c 0,0.276 0.224,0.5 0.5,0.5 h 48 c 0.276,0 0.5,-0.224 0.5,-0.5 V 10 C 56.5,9.724 56.276,9.5 56,9.5 Z m -0.5,44 h -47 v -43 h 47 z"
               inkscape:connector-curvature="0"
               style="fill:#000000;fill-opacity:1;stroke:none;stroke-width:2.4363;stroke-miterlimit:4;stroke-dasharray:none;stroke-opacity:1" />
            <path
               id="path142"
               d="m 19.646,42.354 c 0.098,0.097 0.226,0.146 0.354,0.146 0.128,0 0.256,-0.049 0.354,-0.146 l 10,-10 c 0.195,-0.195 0.195,-0.512 0,-0.707 l -10,-10 c -0.195,-0.195 -0.512,-0.195 -0.707,0 -0.195,0.195 -0.195,0.512 0,0.707 L 29.293,32 19.647,41.646 c -0.196,0.196 -0.196,0.512 -10e-4,0.708 z"
               inkscape:connector-curvature="0"
               style="fill:#000000;fill-opacity:1;stroke:none;stroke-width:2.4363;stroke-miterlimit:4;stroke-dasharray:none;stroke-opacity:1" />
            <path
               id="path144"
               d="m 34,42.5 h 10 c 0.276,0 0.5,-0.224 0.5,-0.5 0,-0.276 -0.224,-0.5 -0.5,-0.5 H 34 c -0.276,0 -0.5,0.224 -0.5,0.5 0,0.276 0.224,0.5 0.5,0.5 z"
               inkscape:connector-curvature="0"
               style="fill:#000000;fill-opacity:1;stroke:none;stroke-width:2.4363;stroke-miterlimit:4;stroke-dasharray:none;stroke-opacity:1" />
          </g>
        </g>
      </g>
    </g>
    <text
       transform="scale(1.0074943,0.99256147)"
       id="text393"
       y="237.21404"
       x="252.87599"
       style="font-style:normal;font-variant:normal;font-weight:normal;font-stretch:normal;font-size:8.88945px;line-height:1.25;font-family:'VL Gothic';-inkscape-font-specification:'VL Gothic';letter-spacing:0px;word-spacing:0px;fill:#000000;fill-opacity:1;stroke:none;stroke-width:0.222237"
       xml:space="preserve"><tspan
         style="stroke-width:0.222237"
         y="237.21404"
         x="252.87599"
         id="tspan391"
         sodipodi:role="line"></tspan></text>
    <g
       transform="translate(1.9663353,0.77131057)"
       id="g1841">
      <g
         id="g1919">
        <text
           id="text359"
           y="127.11856"
           x="105.4007"
           style="font-style:normal;font-variant:normal;font-weight:normal;font-stretch:normal;font-size:10.5833px;line-height:1.25;font-family:'VL Gothic';-inkscape-font-specification:'VL Gothic';letter-spacing:0px;word-spacing:0px;fill:#000000;fill-opacity:1;stroke:none;stroke-width:0.264583"
           xml:space="preserve"><tspan
             id="tspan363"
             style="font-style:normal;font-variant:normal;font-weight:600;font-stretch:normal;font-family:FreeSans;-inkscape-font-specification:'FreeSans Semi-Bold';text-align:center;text-anchor:middle;stroke-width:0.264583"
             y="127.11856"
             x="105.4007"
             sodipodi:role="line">Schemes</tspan><tspan
             id="tspan399"
             style="font-style:normal;font-variant:normal;font-weight:600;font-stretch:normal;font-family:FreeSans;-inkscape-font-specification:'FreeSans Semi-Bold';text-align:center;text-anchor:middle;stroke-width:0.264583"
             y="140.7735"
             x="105.4007"
             sodipodi:role="line">Notions</tspan></text>
        <g
           id="g1909">
          <rect
             style="opacity:0.997;fill:#1a1a1a;fill-opacity:1;stroke-width:0.132192"
             id="rect401"
             width="21.802492"
             height="1.8218176"
             x="81.266144"
             y="129.23572" />
          <text
             id="text359-7"
             y="131.6283"
             x="105.37001"
             style="font-style:normal;font-variant:normal;font-weight:normal;font-stretch:normal;font-size:4.23333px;line-height:1.25;font-family:'VL Gothic';-inkscape-font-specification:'VL Gothic';letter-spacing:0px;word-spacing:0px;opacity:0.997;fill:#000000;fill-opacity:1;stroke:none;stroke-width:0.264583"
             xml:space="preserve"><tspan
               id="tspan399-2"
               style="font-style:normal;font-variant:normal;font-weight:600;font-stretch:normal;font-family:FreeSans;-inkscape-font-specification:'FreeSans Semi-Bold';text-align:center;text-anchor:middle;stroke-width:0.264583"
               y="131.6283"
               x="105.37001"
               sodipodi:role="line">&amp;</tspan></text>
          <rect
             y="129.23572"
             x="107.78568"
             height="1.8218176"
             width="21.802492"
             id="rect401-1"
             style="opacity:0.997;fill:#1a1a1a;fill-opacity:1;stroke-width:0.132192" />
        </g>
      </g>
    </g>
    <g
       id="g1822">
      <g
         id="g68"
         transform="matrix(0.41587595,0,0,0.40971197,116.80774,99.367109)">
        <g
           id="g1555"
           transform="matrix(0.63620734,0,0,0.64577887,-320.13428,-19.511098)">
          <g
             id="g1534"
             transform="matrix(1.1013465,0,0,1.1013465,518.64865,27.328899)">
            <path
               id="path1526"
               d="M 58,1 H 6 C 3.243,1 1,3.243 1,6 v 52 c 0,2.757 2.243,5 5,5 h 52 c 2.757,0 5,-2.243 5,-5 V 6 C 63,3.243 60.757,1 58,1 Z M 6,3 h 52 c 1.654,0 3,1.346 3,3 v 7 H 39 v -1 c 0,-0.553 -0.447,-1 -1,-1 H 26 c -0.553,0 -1,0.447 -1,1 v 1 H 3 V 6 C 3,4.346 4.346,3 6,3 Z m 55,12 v 2 H 39 V 15 Z M 31,35 h 2 v 2.586 l -1,1 -1,-1 z m -2,-2 v -2 h 6 v 2 z m -2,-4 v -2 h 10 v 2 z m 6,-4 v -2 h -2 v 2 h -2 v -4 h 6 v 4 z m -6,-6 v -6 h 10 v 6 z M 25,17 H 3 V 15 H 25 Z M 7,55 v -2 h 50 v 2 z m 26,2 v 4 h -2 v -4 z m 25,4 H 35 v -4 h 23 c 0.553,0 1,-0.447 1,-1 v -4 c 0,-0.553 -0.447,-1 -1,-1 H 6 c -0.553,0 -1,0.447 -1,1 v 4 c 0,0.553 0.447,1 1,1 h 23 v 4 H 6 C 4.346,61 3,59.654 3,58 V 19 h 22 v 1 c 0,0.553 0.447,1 1,1 h 1 v 4 h -1 c -0.553,0 -1,0.447 -1,1 v 4 c 0,0.553 0.447,1 1,1 h 1 v 3 c 0,0.553 0.447,1 1,1 h 1 v 3 c 0,0.266 0.105,0.52 0.293,0.707 l 2,2 C 31.488,40.902 31.744,41 32,41 c 0.256,0 0.512,-0.098 0.707,-0.293 l 2,-2 C 34.895,38.52 35,38.266 35,38 v -3 h 1 c 0.553,0 1,-0.447 1,-1 v -3 h 1 c 0.553,0 1,-0.447 1,-1 v -4 c 0,-0.553 -0.447,-1 -1,-1 h -1 v -4 h 1 c 0.553,0 1,-0.447 1,-1 v -1 h 22 v 39 c 0,1.654 -1.346,3 -3,3 z"
               inkscape:connector-curvature="0" />
            <path
               id="path1528"
               d="M 8,11 C 9.654,11 11,9.654 11,8 11,6.346 9.654,5 8,5 6.346,5 5,6.346 5,8 5,9.654 6.346,11 8,11 Z M 8,7 C 8.552,7 9,7.448 9,8 9,8.552 8.552,9 8,9 7.448,9 7,8.552 7,8 7,7.448 7.448,7 8,7 Z"
               inkscape:connector-curvature="0" />
            <path
               id="path1530"
               d="m 16,11 c 1.654,0 3,-1.346 3,-3 0,-1.654 -1.346,-3 -3,-3 -1.654,0 -3,1.346 -3,3 0,1.654 1.346,3 3,3 z m 0,-4 c 0.552,0 1,0.448 1,1 0,0.552 -0.448,1 -1,1 -0.552,0 -1,-0.448 -1,-1 0,-0.552 0.448,-1 1,-1 z"
               inkscape:connector-curvature="0" />
            <path
               id="path1532"
               d="m 24,11 c 1.654,0 3,-1.346 3,-3 0,-1.654 -1.346,-3 -3,-3 -1.654,0 -3,1.346 -3,3 0,1.654 1.346,3 3,3 z m 0,-4 c 0.552,0 1,0.448 1,1 0,0.552 -0.448,1 -1,1 -0.552,0 -1,-0.448 -1,-1 0,-0.552 0.448,-1 1,-1 z"
               inkscape:connector-curvature="0" />
          </g>
        </g>
      </g>
      <g
         id="g237"
         transform="matrix(0.22390237,0,0,0.22058376,173.29327,-3.2455314)">
        <g
           id="g203">
          <path
             id="path169"
             d="m -366.8,461.4 h -39.7 c -0.8,0 -1.4,0.6 -1.4,1.4 V 492 l 2.8,2.4 v -30.2 h 36.9 v 51.4 h -9.1 c 0.4,0.9 0.5,1.9 0.2,2.8 h 10.3 c 0.8,0 1.4,-0.6 1.4,-1.4 v -54.2 c 0,-0.8 -0.7,-1.4 -1.4,-1.4 z"
             inkscape:connector-curvature="0" />
          <path
             id="path171"
             d="m -373.2,482.4 v -9.8 c 0,-0.8 -0.6,-1.4 -1.4,-1.4 h -24.2 c -0.8,0 -1.4,0.6 -1.4,1.4 v 9.8 c 0,0.8 0.6,1.4 1.4,1.4 h 24.2 c 0.8,0 1.4,-0.6 1.4,-1.4 z M -376,481 h -21.4 v -6.9 h 21.4 z"
             inkscape:connector-curvature="0" />
          <path
             id="path173"
             d="m -390.2,509.5 c -0.5,0 -0.9,0.3 -1,0.8 l -0.8,3.9 1,4.3 c 0.1,-0.1 0.3,-0.3 0.3,-0.5 l 1.6,-7.2 c 0.1,-0.6 -0.2,-1.1 -0.8,-1.2 -0.2,-0.1 -0.3,-0.1 -0.3,-0.1 z"
             inkscape:connector-curvature="0" />
          <path
             id="path175"
             d="m -386.9,527.1 c -0.1,0.6 0.2,1.1 0.8,1.2 l 7.2,1.6 c 0.1,0 0.1,0 0.2,0 0.5,0 0.9,-0.3 1,-0.8 0.1,-0.6 -0.2,-1.1 -0.8,-1.2 l -7.2,-1.6 c -0.1,0 -0.1,0 -0.2,0 -0.5,0 -0.9,0.3 -1,0.8 z"
             inkscape:connector-curvature="0" />
          <path
             id="path177"
             d="m -388.6,531.7 c -0.2,-0.3 -0.5,-0.5 -0.9,-0.5 -0.2,0 -0.4,0.1 -0.6,0.2 -0.5,0.3 -0.6,0.9 -0.3,1.4 l 4,6.2 c 0.2,0.3 0.5,0.5 0.9,0.5 0.2,0 0.4,-0.1 0.6,-0.2 0.5,-0.3 0.6,-0.9 0.3,-1.4 z"
             inkscape:connector-curvature="0" />
          <path
             id="path179"
             d="m -395.3,532.2 c -0.1,0 -0.1,0 -0.2,0 -0.5,0 -0.9,0.3 -1,0.8 l -1.6,7.2 c -0.1,0.6 0.2,1.1 0.8,1.2 0.1,0 0.1,0 0.2,0 0.5,0 0.9,-0.3 1,-0.8 l 1.6,-7.2 c 0.1,-0.5 -0.2,-1.1 -0.8,-1.2 z"
             inkscape:connector-curvature="0" />
          <path
             id="path181"
             d="m -399.9,530.5 c 0.5,-0.3 0.6,-0.9 0.3,-1.4 -0.2,-0.3 -0.5,-0.5 -0.9,-0.5 -0.2,0 -0.4,0.1 -0.6,0.2 l -6.2,4 c -0.5,0.3 -0.6,0.9 -0.3,1.4 0.2,0.3 0.5,0.5 0.9,0.5 0.2,0 0.4,-0.1 0.6,-0.2 z"
             inkscape:connector-curvature="0" />
          <path
             id="path183"
             d="m -408.6,521 c -0.5,0 -0.9,0.3 -1,0.8 -0.1,0.6 0.2,1.1 0.8,1.2 l 7.2,1.6 c 0.1,0 0.1,0 0.2,0 0.5,0 0.9,-0.3 1,-0.8 0.1,-0.6 -0.2,-1.1 -0.8,-1.2 l -7.2,-1.6 c -0.1,0 -0.2,0 -0.2,0 z"
             inkscape:connector-curvature="0" />
          <path
             id="path185"
             d="m -386.6,517.5 5.6,-8.1 c 0.3,-0.5 0.2,-1.1 -0.3,-1.4 -0.2,-0.1 -0.4,-0.2 -0.6,-0.2 -0.3,0 -0.6,0.2 -0.8,0.4 l -5.6,8.1 c -0.3,0.5 -0.2,1.1 0.3,1.4 0.2,0.1 0.4,0.2 0.6,0.2 0.3,0.1 0.6,-0.1 0.8,-0.4 z"
             inkscape:connector-curvature="0" />
          <path
             id="path187"
             d="m -373.5,521.1 c -0.1,0 -0.1,0 -0.2,0 l -9.7,1.7 c -0.6,0.1 -0.9,0.6 -0.8,1.2 0.1,0.5 0.5,0.8 1,0.8 0.1,0 0.1,0 0.2,0 l 9.7,-1.7 c 0.6,-0.1 0.9,-0.6 0.8,-1.2 -0.1,-0.4 -0.5,-0.8 -1,-0.8 z"
             inkscape:connector-curvature="0" />
          <path
             id="path189"
             d="m -384.5,530.9 c -0.2,-0.1 -0.4,-0.2 -0.6,-0.2 -0.3,0 -0.6,0.2 -0.8,0.4 -0.3,0.5 -0.2,1.1 0.3,1.4 l 8.1,5.6 c 0.2,0.1 0.4,0.2 0.6,0.2 0.3,0 0.6,-0.2 0.8,-0.4 0.3,-0.5 0.2,-1.1 -0.3,-1.4 z"
             inkscape:connector-curvature="0" />
          <path
             id="path191"
             d="m -392,534.9 c -0.1,0 -0.1,0 -0.2,0 -0.6,0.1 -0.9,0.6 -0.8,1.2 l 1.7,9.7 c 0.1,0.5 0.5,0.8 1,0.8 0.1,0 0.1,0 0.2,0 0.6,-0.1 0.9,-0.6 0.8,-1.2 l -1.7,-9.7 c -0.1,-0.5 -0.5,-0.8 -1,-0.8 z"
             inkscape:connector-curvature="0" />
          <path
             id="path193"
             d="m -399.9,533 c -0.3,0 -0.6,0.2 -0.8,0.4 l -5.6,8.1 c -0.3,0.5 -0.2,1.1 0.3,1.4 0.2,0.1 0.4,0.2 0.6,0.2 0.3,0 0.6,-0.2 0.8,-0.4 l 5.6,-8.1 c 0.3,-0.5 0.2,-1.1 -0.3,-1.4 -0.2,-0.2 -0.4,-0.2 -0.6,-0.2 z"
             inkscape:connector-curvature="0" />
          <path
             id="path195"
             d="m -403.1,526.9 c -0.1,-0.5 -0.5,-0.8 -1,-0.8 -0.1,0 -0.1,0 -0.2,0 l -9.7,1.7 c -0.6,0.1 -0.9,0.6 -0.8,1.2 0.1,0.5 0.5,0.8 1,0.8 0.1,0 0.1,0 0.2,0 l 9.7,-1.7 c 0.5,-0.1 0.9,-0.6 0.8,-1.2 z"
             inkscape:connector-curvature="0" />
          <path
             id="path197"
             d="m -409.7,512.8 c -0.2,-0.1 -0.4,-0.2 -0.6,-0.2 -0.3,0 -0.6,0.2 -0.8,0.4 -0.3,0.5 -0.2,1.1 0.3,1.4 l 8.1,5.6 c 0.2,0.1 0.4,0.2 0.6,0.2 0.3,0 0.6,-0.2 0.8,-0.4 0.3,-0.5 0.2,-1.1 -0.3,-1.4 z"
             inkscape:connector-curvature="0" />
          <path
             id="path199"
             d="m -379.8,516.7 c -0.2,-0.3 -0.5,-0.5 -0.9,-0.5 -0.2,0 -0.4,0.1 -0.6,0.2 l -6.2,4 c -0.5,0.3 -0.6,0.9 -0.3,1.4 0.2,0.3 0.5,0.5 0.9,0.5 0.2,0 0.4,-0.1 0.6,-0.2 l 6.2,-4 c 0.5,-0.2 0.6,-0.9 0.3,-1.4 z"
             inkscape:connector-curvature="0" />
          <path
             id="path201"
             d="m -392.6,522.3 -2,-8.8 c -0.1,-0.4 -0.3,-0.7 -0.6,-0.9 l -10.2,-8.4 1.5,-1.8 c 0.2,-0.3 0.4,-0.7 0.3,-1 0,-0.4 -0.2,-0.7 -0.5,-1 l -25.4,-21.3 c -0.3,-0.2 -0.6,-0.3 -1,-0.3 0,0 0,0 0,0 -0.4,0 -0.7,0.2 -1,0.5 l -4.8,5.7 c -0.2,0.3 -0.4,0.7 -0.3,1 0,0.4 0.2,0.7 0.5,1 l 25.4,21.3 c 0.3,0.2 0.6,0.3 0.9,0.3 h 0.1 c 0.4,0 0.7,-0.2 1,-0.5 l 1,-1.2 9.8,8 1.8,8 1.9,4.4 1.7,-0.4 z m -17.4,-17.2 -23.2,-19.4 3,-3.6 23.2,19.4 z"
             inkscape:connector-curvature="0" />
        </g>
      </g>
      <g
         id="g1577"
         transform="matrix(0.17848099,0,0,0.17848099,97.939772,99.004649)">
        <g
           id="g1559">
          <path
             id="path1557"
             d="M 88.59,67.702 66.91,52.534 67.285,52.159 c 5.45,0.929 11.025,-0.063 15.842,-2.845 7.483,-4.32 12.025,-12.384 11.855,-21.045 -0.024,-1.253 -0.691,-2.37 -1.783,-2.987 -1.092,-0.616 -2.39,-0.611 -3.474,0.016 l -9.761,5.635 -6.218,-3.627 -0.032,-7.198 9.762,-5.636 c 1.083,-0.626 1.738,-1.748 1.75,-3 C 85.238,10.219 84.606,9.084 83.534,8.435 76.045,3.914 66.722,3.855 59.2,8.282 50.824,13.214 46.298,23.094 47.868,32.686 L 45.17,35.384 30,20.214 V 15 c 0,-0.878 -0.461,-1.692 -1.214,-2.144 l -12.5,-7.5 C 15.304,4.766 14.043,4.921 13.232,5.732 l -7.5,7.5 c -0.812,0.811 -0.966,2.07 -0.376,3.054 l 7.5,12.5 C 13.308,29.539 14.122,30 15,30 h 5.214 L 35.384,45.17 9.027,71.527 c -5.36,5.361 -5.36,14.084 0,19.446 2.681,2.68 6.202,4.02 9.723,4.02 3.521,0 7.042,-1.34 9.723,-4.021 L 52.535,66.91 67.703,88.59 C 70.51,92.604 75.107,95 80,95 88.271,95 95,88.271 95,80 95,75.107 92.604,70.51 88.59,67.702 Z M 52.343,35.282 c 0.607,-0.606 0.86,-1.482 0.671,-2.319 -1.791,-7.916 1.796,-16.293 8.723,-20.372 2.932,-1.727 6.211,-2.588 9.493,-2.588 2.508,0 5.018,0.504 7.373,1.51 l -8.645,4.991 c -0.777,0.449 -1.254,1.279 -1.25,2.176 l 0.045,10.078 c 0.004,0.885 0.476,1.702 1.24,2.148 l 8.705,5.078 c 0.774,0.452 1.732,0.453 2.51,0.005 l 8.644,-4.99 c -0.702,5.811 -4.084,11.018 -9.224,13.985 -4.094,2.363 -8.879,3.085 -13.49,2.046 -1.082,-0.375 -2.113,-0.879 -3.073,-1.499 l -4.798,-4.798 c -0.976,-0.977 -2.56,-0.977 -3.535,0 l -2.607,2.607 -4.42,-4.42 z M 23.018,25.732 C 22.549,25.263 21.913,25 21.25,25 h -4.834 l -5.768,-9.612 4.74,-4.74 9.612,5.768 v 4.834 c 0,0.663 0.263,1.299 0.732,1.768 l 25,25 -2.715,2.715 z m 1.92,61.705 c -3.412,3.412 -8.963,3.411 -12.375,0 -3.412,-3.412 -3.412,-8.963 0,-12.375 l 26.357,-26.357 4.42,4.42 -2.607,2.607 c -0.977,0.976 -0.977,2.559 0,3.535 l 5,5 c 0.441,0.442 1.032,0.692 1.653,0.721 z M 80,90 c -3.262,0 -6.328,-1.599 -8.201,-4.276 L 54.549,61.067 C 54.081,60.398 53.316,60 52.5,60 h -3.964 l -2.5,-2.5 11.464,-11.464 2.5,2.5 V 52.5 c 0,0.816 0.398,1.581 1.067,2.048 l 24.657,17.25 C 88.401,73.672 90,76.738 90,80 90,85.514 85.514,90 80,90 Z"
             inkscape:connector-curvature="0" />
        </g>
      </g>
    </g>
  </g>
</svg>
